Coordinates
version=1
nRows=4
nColumns=114
inDegrees=yes

Units are S.I. units (second, meters, Newtons, ...)
If the header above contains a line with 'inDegrees', this indicates whether rotational values are in degrees (yes) or radians (no).

endheader 
time	pelvis_tilt	pelvis_list	pelvis_rotation	pelvis_tx	pelvis_ty	pelvis_tz	hip_flexion_l	hip_adduction_l	hip_rotation_l	hip_flexion_r	hip_adduction_r	hip_rotation_r	knee_angle_l	knee_angle_r	ankle_angle_l	ankle_angle_r	subtalar_angle_l	subtalar_angle_r	mtp_angle_l	mtp_angle_r	lumbar_extension	lumbar_bending	lumbar_rotation	arm_flex_l	arm_add_l	arm_rot_l	arm_flex_r	arm_add_r	arm_rot_r	elbow_flex_l	elbow_flex_r	pro_sup_l	pro_sup_r	addbrev_l/activation	addlong_l/activation	addmagDist_l/activation	addmagIsch_l/activation	addmagMid_l/activation	addmagProx_l/activation	bflh_l/activation	bfsh_l/activation	edl_l/activation	ehl_l/activation	fdl_l/activation	fhl_l/activation	gaslat_l/activation	gasmed_l/activation	glmax1_l/activation	glmax2_l/activation	glmax3_l/activation	glmed1_l/activation	glmed2_l/activation	glmed3_l/activation	glmin1_l/activation	glmin2_l/activation	glmin3_l/activation	grac_l/activation	iliacus_l/activation	perbrev_l/activation	perlong_l/activation	piri_l/activation	psoas_l/activation	recfem_l/activation	sart_l/activation	semimem_l/activation	semiten_l/activation	soleus_l/activation	tfl_l/activation	tibant_l/activation	tibpost_l/activation	vasint_l/activation	vaslat_l/activation	vasmed_l/activation	addbrev_r/activation	addlong_r/activation	addmagDist_r/activation	addmagIsch_r/activation	addmagMid_r/activation	addmagProx_r/activation	bflh_r/activation	bfsh_r/activation	edl_r/activation	ehl_r/activation	fdl_r/activation	fhl_r/activation	gaslat_r/activation	gasmed_r/activation	glmax1_r/activation	glmax2_r/activation	glmax3_r/activation	glmed1_r/activation	glmed2_r/activation	glmed3_r/activation	glmin1_r/activation	glmin2_r/activation	glmin3_r/activation	grac_r/activation	iliacus_r/activation	perbrev_r/activation	perlong_r/activation	piri_r/activation	psoas_r/activation	recfem_r/activation	sart_r/activation	semimem_r/activation	semiten_r/activation	soleus_r/activation	tfl_r/activation	tibant_r/activation	tibpost_r/activation	vasint_r/activation	vaslat_r/activation	vasmed_r/activation	
          1.40000000	        -10.83999070	          1.63872065	        -44.09552307	          1.14544085	          0.90045459	          0.26502658	         29.26778351	         -6.61269120	          2.32860775	          4.52277184	          2.87788284	        -17.48651523	         42.08250486	         34.67309994	          1.88845131	          6.39563372	        -20.67212616	         -7.85807978	        -32.33588741	        -17.14454636	        -16.38306294	          5.50462706	         11.35245063	        -10.04220161	        -15.09016403	        -12.19603577	        -12.07106208	        -24.29032256	        -31.18497764	          8.81195527	         81.54237866	         89.96303473	         96.35813725	          0.01017227	          0.01009957	          0.01106757	          0.01484550	          0.01032839	          0.01033326	          0.02447589	          0.01066720	          0.01403651	          0.01126751	          0.01421436	          0.01905306	          0.14342419	          0.30001209	          0.27455403	          0.39413520	          0.02628974	          0.32237770	          0.32333623	          0.39336531	          0.06132820	          0.10434653	          0.17663548	          0.01036767	          0.01019066	          0.17691650	          0.23346837	          0.25288507	          0.01017293	          0.03178480	          0.01120729	          0.32426253	          0.01076331	          0.14169874	          0.10669671	          0.01275111	          0.03141052	          0.03142336	          0.04604668	          0.03607605	          0.01016352	          0.01012855	          0.01008782	          0.01007658	          0.01011503	          0.01024566	          0.01003247	          0.07415774	          0.08029419	          0.01141260	          0.05575136	          0.10800626	          0.28083884	          0.69762884	          0.01157486	          0.01203970	          0.01004583	          0.43149021	          0.23915229	          0.16162867	          0.20407142	          0.26549384	          0.26304038	          0.01009007	          0.37024490	          0.24641405	          0.31819857	          0.18169471	          0.32919868	          0.35327455	          0.07642983	          0.10571646	          0.01220380	          0.46404675	          0.31504934	          0.01278516	          0.08184365	          0.04307517	          0.07311237	          0.04756572	
          1.41000000	        -10.17550120	          1.94497134	        -43.83128170	          1.14449926	          0.90109902	          0.26545563	         29.21801086	         -6.16005713	          1.49029878	          4.56638188	          2.39119701	        -16.00515577	         42.39353225	         34.78419865	          1.59845556	          4.17405281	        -20.20602287	         -8.99658505	        -32.17653603	        -21.78539828	        -16.50387489	          5.09373734	         10.31062978	        -11.10743643	        -15.18656723	        -12.89514762	        -11.35444679	        -24.74685808	        -29.46828858	          8.47362737	         85.94031131	         90.44342350	         96.15573011	          0.01018215	          0.01011674	          0.01026215	          0.01243176	          0.01023149	          0.01032812	          0.09700948	          0.06624982	          0.01886261	          0.01394437	          0.01606003	          0.01621172	          0.11959556	          0.25075286	          0.22887291	          0.32847281	          0.02192116	          0.36361389	          0.30407510	          0.32864836	          0.08883795	          0.15520971	          0.17790168	          0.01067945	          0.01046719	          0.14746813	          0.19463133	          0.25241747	          0.01033884	          0.02649175	          0.08799746	          0.37400668	          0.06956009	          0.11808424	          0.12739334	          0.01804686	          0.02619373	          0.02618961	          0.03837323	          0.03006576	          0.01007157	          0.01005734	          0.01004119	          0.01003450	          0.01005637	          0.01018551	          0.01003760	          0.07168510	          0.06693786	          0.01016276	          0.04647507	          0.09001598	          0.23405134	          0.58137180	          0.01012253	          0.01006429	          0.01002527	          0.35968566	          0.21386062	          0.16643267	          0.17493730	          0.22230825	          0.22981434	          0.01033324	          0.31984946	          0.20547495	          0.27887128	          0.16826984	          0.27447259	          0.29439928	          0.18812621	          0.08810374	          0.01019525	          0.38670808	          0.26265887	          0.01066628	          0.06820883	          0.03589855	          0.06092784	          0.03963995	
          1.42000000	         -9.48159167	          2.24833434	        -43.62335981	          1.14374516	          0.90214000	          0.26597434	         29.24232497	         -5.67199993	          0.78385561	          4.80806539	          1.68271168	        -14.91812372	         42.92700427	         35.47304359	          1.25461836	          2.27546027	        -19.79282860	         -9.81107348	        -31.63861695	        -25.78277903	        -16.62365659	          4.65265435	          9.29816463	        -12.38441465	        -15.19999155	        -12.48593628	        -10.98562833	        -25.29018524	        -28.07955754	          8.39121428	         90.35940057	         89.76674331	         94.83045983	          0.01029111	          0.01021310	          0.01025624	          0.01049346	          0.01027169	          0.01043774	          0.08099104	          0.05564520	          0.08672656	          0.02803268	          0.01403280	          0.01365324	          0.09970922	          0.21078553	          0.19079115	          0.27375008	          0.01827976	          0.39604886	          0.26283466	          0.27418204	          0.13427636	          0.13769862	          0.16177247	          0.01192055	          0.05580051	          0.12333720	          0.20407482	          0.27317003	          0.01253844	          0.02208098	          0.17244274	          0.40798058	          0.06269817	          0.09840540	          0.14661346	          0.02478744	          0.02184891	          0.02182792	          0.03197862	          0.02505702	          0.01069701	          0.01194880	          0.01007241	          0.01006691	          0.01011896	          0.01051179	          0.01003583	          0.05979444	          0.07902560	          0.02150708	          0.03877678	          0.07502852	          0.19505496	          0.48449033	          0.01008028	          0.01004198	          0.01003035	          0.30024520	          0.17826571	          0.13872196	          0.14810980	          0.18533687	          0.19154478	          0.01044054	          0.26657895	          0.17127387	          0.23246875	          0.14023405	          0.22875563	          0.24533537	          0.15680302	          0.09157389	          0.01005025	          0.32225865	          0.21894851	          0.03764402	          0.05684821	          0.02991851	          0.05077423	          0.03303547	
          1.43000000	         -8.77899428	          2.51851342	        -43.47757971	          1.14327982	          0.90343264	          0.26660850	         29.26115269	         -5.17830748	          0.30240340	          5.23291761	          0.81254940	        -14.22562465	         43.59210536	         36.65433853	          1.02192537	          0.75440898	        -19.34798308	        -10.25636538	        -30.73091330	        -28.49843626	        -16.74015628	          4.19186980	          8.74832309	        -13.03963220	        -15.20292904	        -12.20830539	        -12.19173957	        -26.03422772	        -28.11535111	          8.32002337	         94.98077077	         90.05789536	         93.62507117	          0.01023333	          0.01016964	          0.01019039	          0.01019311	          0.01020872	          0.01034236	          0.06836982	          0.32171984	          0.07307475	          0.02358421	          0.01198044	          0.01149411	          0.08312432	          0.18208466	          0.15908475	          0.22815271	          0.01524615	          0.35923682	          0.27392705	          0.28806525	          0.11734434	          0.18093075	          0.19499417	          0.01227997	          0.12640615	          0.11653996	          0.21728514	          0.29881549	          0.02550077	          0.01840542	          0.19110476	          0.41452271	          0.15025509	          0.08200633	          0.15358051	          0.02069452	          0.01821984	          0.01819320	          0.02664975	          0.02088304	          0.01008274	          0.01003710	          0.01213704	          0.01249997	          0.01196535	          0.01012284	          0.03032517	          0.04989362	          0.09141168	          0.12016060	          0.03234519	          0.06253178	          0.16264844	          0.46545046	          0.01325041	          0.02190275	          0.01207067	          0.31113242	          0.15286585	          0.11569607	          0.12379408	          0.15455838	          0.15976597	          0.01010697	          0.22217504	          0.14279580	          0.19530848	          0.11700961	          0.19065053	          0.20444748	          0.13069380	          0.31568320	          0.04578748	          0.26855117	          0.18257423	          0.15085530	          0.04738038	          0.02493459	          0.04231266	          0.02753134	
